<mxfile host="app.diagrams.net" agent="Mozilla/5.0 (Windows NT 10.0; Win64; x64) AppleWebKit/537.36 (KHTML, like Gecko) Chrome/130.0.0.0 Safari/537.36" version="24.8.4">
  <diagram name="Page-1" id="b_wjNfzORTjbHEDvQfJR">
    <mxGraphModel dx="1644" dy="794" grid="1" gridSize="10" guides="1" tooltips="1" connect="1" arrows="1" fold="1" page="1" pageScale="1" pageWidth="1169" pageHeight="827" math="0" shadow="0">
      <root>
        <mxCell id="0" />
        <mxCell id="1" parent="0" />
        <mxCell id="yVznmgjhYQ62BfokBK0U-36" value="" style="rounded=1;whiteSpace=wrap;html=1;fillColor=none;dashed=1;dashPattern=1 1;arcSize=5;movable=0;resizable=0;rotatable=0;deletable=0;editable=0;locked=1;connectable=0;" vertex="1" parent="1">
          <mxGeometry x="10" y="150" width="1150" height="670" as="geometry" />
        </mxCell>
        <mxCell id="yVznmgjhYQ62BfokBK0U-29" value="" style="rounded=1;whiteSpace=wrap;html=1;fillColor=none;dashed=1;dashPattern=1 1;arcSize=17;movable=0;resizable=0;rotatable=0;deletable=0;editable=0;locked=1;connectable=0;" vertex="1" parent="1">
          <mxGeometry x="750" y="167" width="380" height="150" as="geometry" />
        </mxCell>
        <mxCell id="yVznmgjhYQ62BfokBK0U-1" value="" style="endArrow=none;dashed=1;html=1;dashPattern=1 3;strokeWidth=2;rounded=0;movable=0;resizable=0;rotatable=0;deletable=0;editable=0;locked=1;connectable=0;" edge="1" parent="1">
          <mxGeometry width="50" height="50" relative="1" as="geometry">
            <mxPoint x="10" y="130" as="sourcePoint" />
            <mxPoint x="1160" y="130" as="targetPoint" />
          </mxGeometry>
        </mxCell>
        <mxCell id="yVznmgjhYQ62BfokBK0U-2" value="" style="rounded=1;whiteSpace=wrap;html=1;fillColor=none;dashed=1;dashPattern=1 1;arcSize=5;movable=0;resizable=0;rotatable=0;deletable=0;editable=0;locked=1;connectable=0;" vertex="1" parent="1">
          <mxGeometry x="30" y="340" width="1100" height="460" as="geometry" />
        </mxCell>
        <mxCell id="yVznmgjhYQ62BfokBK0U-3" value="" style="rounded=1;whiteSpace=wrap;html=1;fillColor=none;dashed=1;dashPattern=1 1;arcSize=5;movable=0;resizable=0;rotatable=0;deletable=0;editable=0;locked=1;connectable=0;" vertex="1" parent="1">
          <mxGeometry x="60" y="414" width="580" height="370" as="geometry" />
        </mxCell>
        <mxCell id="yVznmgjhYQ62BfokBK0U-4" value="" style="rounded=1;whiteSpace=wrap;html=1;fillColor=none;dashed=1;dashPattern=1 1;arcSize=5;movable=0;resizable=0;rotatable=0;deletable=0;editable=0;locked=1;connectable=0;" vertex="1" parent="1">
          <mxGeometry x="720" y="414" width="400" height="370" as="geometry" />
        </mxCell>
        <mxCell id="yVznmgjhYQ62BfokBK0U-5" value="" style="rounded=1;whiteSpace=wrap;html=1;fillColor=none;dashed=1;dashPattern=1 1;arcSize=17;movable=0;resizable=0;rotatable=0;deletable=0;editable=0;locked=1;connectable=0;" vertex="1" parent="1">
          <mxGeometry x="30" y="170" width="700" height="150" as="geometry" />
        </mxCell>
        <mxCell id="yVznmgjhYQ62BfokBK0U-17" value="" style="shape=cylinder3;whiteSpace=wrap;html=1;boundedLbl=1;backgroundOutline=1;size=15;" vertex="1" parent="1">
          <mxGeometry x="165" y="620" width="50" height="70" as="geometry" />
        </mxCell>
        <mxCell id="yVznmgjhYQ62BfokBK0U-18" value="" style="shape=cylinder3;whiteSpace=wrap;html=1;boundedLbl=1;backgroundOutline=1;size=15;" vertex="1" parent="1">
          <mxGeometry x="439" y="620" width="50" height="70" as="geometry" />
        </mxCell>
        <mxCell id="yVznmgjhYQ62BfokBK0U-19" value="" style="verticalLabelPosition=bottom;aspect=fixed;html=1;shape=mxgraph.salesforce.web2;" vertex="1" parent="1">
          <mxGeometry x="160" y="470" width="60" height="60" as="geometry" />
        </mxCell>
        <mxCell id="yVznmgjhYQ62BfokBK0U-20" value="" style="verticalLabelPosition=bottom;aspect=fixed;html=1;shape=mxgraph.salesforce.web2;" vertex="1" parent="1">
          <mxGeometry x="430" y="470" width="60" height="60" as="geometry" />
        </mxCell>
        <mxCell id="yVznmgjhYQ62BfokBK0U-22" value="" style="shape=cylinder3;whiteSpace=wrap;html=1;boundedLbl=1;backgroundOutline=1;size=15;" vertex="1" parent="1">
          <mxGeometry x="989" y="620" width="50" height="70" as="geometry" />
        </mxCell>
        <mxCell id="yVznmgjhYQ62BfokBK0U-23" value="" style="verticalLabelPosition=bottom;aspect=fixed;html=1;shape=mxgraph.salesforce.web2;" vertex="1" parent="1">
          <mxGeometry x="980" y="470" width="60" height="60" as="geometry" />
        </mxCell>
        <mxCell id="yVznmgjhYQ62BfokBK0U-25" value="" style="endArrow=none;dashed=1;html=1;dashPattern=1 3;strokeWidth=2;rounded=0;" edge="1" parent="1">
          <mxGeometry width="50" height="50" relative="1" as="geometry">
            <mxPoint x="330" y="680" as="sourcePoint" />
            <mxPoint x="330" y="480" as="targetPoint" />
          </mxGeometry>
        </mxCell>
        <mxCell id="yVznmgjhYQ62BfokBK0U-26" value="" style="sketch=0;outlineConnect=0;fontColor=#232F3E;gradientColor=none;fillColor=#7AA116;strokeColor=none;dashed=0;verticalLabelPosition=bottom;verticalAlign=top;align=center;html=1;fontSize=12;fontStyle=0;aspect=fixed;pointerEvents=1;shape=mxgraph.aws4.iot_greengrass_component_public;" vertex="1" parent="1">
          <mxGeometry x="341" y="200" width="78" height="78" as="geometry" />
        </mxCell>
        <mxCell id="yVznmgjhYQ62BfokBK0U-27" value="" style="outlineConnect=0;dashed=0;verticalLabelPosition=bottom;verticalAlign=top;align=center;html=1;shape=mxgraph.aws3.vpn_gateway;fillColor=#F58534;gradientColor=none;" vertex="1" parent="1">
          <mxGeometry x="905.5" y="203" width="69" height="72" as="geometry" />
        </mxCell>
        <mxCell id="yVznmgjhYQ62BfokBK0U-30" value="Public Subnet" style="text;html=1;align=center;verticalAlign=middle;whiteSpace=wrap;rounded=0;" vertex="1" parent="1">
          <mxGeometry x="30" y="176" width="120" height="30" as="geometry" />
        </mxCell>
        <mxCell id="yVznmgjhYQ62BfokBK0U-31" value="Private Subnet" style="text;html=1;align=center;verticalAlign=middle;whiteSpace=wrap;rounded=0;" vertex="1" parent="1">
          <mxGeometry x="40" y="350" width="120" height="30" as="geometry" />
        </mxCell>
        <mxCell id="yVznmgjhYQ62BfokBK0U-32" value="Prod Subnet" style="text;html=1;align=center;verticalAlign=middle;whiteSpace=wrap;rounded=0;" vertex="1" parent="1">
          <mxGeometry x="60" y="420" width="120" height="30" as="geometry" />
        </mxCell>
        <mxCell id="yVznmgjhYQ62BfokBK0U-33" value="UAT Subnet" style="text;html=1;align=center;verticalAlign=middle;whiteSpace=wrap;rounded=0;" vertex="1" parent="1">
          <mxGeometry x="730" y="420" width="120" height="30" as="geometry" />
        </mxCell>
        <mxCell id="yVznmgjhYQ62BfokBK0U-34" value="" style="verticalLabelPosition=bottom;aspect=fixed;html=1;shape=mxgraph.salesforce.web2;" vertex="1" parent="1">
          <mxGeometry x="800" y="470" width="60" height="60" as="geometry" />
        </mxCell>
        <mxCell id="yVznmgjhYQ62BfokBK0U-35" value="" style="shape=cylinder3;whiteSpace=wrap;html=1;boundedLbl=1;backgroundOutline=1;size=15;" vertex="1" parent="1">
          <mxGeometry x="809" y="620" width="50" height="70" as="geometry" />
        </mxCell>
        <mxCell id="yVznmgjhYQ62BfokBK0U-37" value="" style="image;sketch=0;aspect=fixed;html=1;points=[];align=center;fontSize=12;image=img/lib/mscae/App_Service_IPAddress.svg;" vertex="1" parent="1">
          <mxGeometry x="230" y="34" width="50" height="42" as="geometry" />
        </mxCell>
        <mxCell id="yVznmgjhYQ62BfokBK0U-38" value="" style="image;sketch=0;aspect=fixed;html=1;points=[];align=center;fontSize=12;image=img/lib/mscae/DNS.svg;" vertex="1" parent="1">
          <mxGeometry x="560" y="30" width="50" height="50" as="geometry" />
        </mxCell>
        <mxCell id="yVznmgjhYQ62BfokBK0U-39" value="" style="image;aspect=fixed;perimeter=ellipsePerimeter;html=1;align=center;shadow=0;dashed=0;spacingTop=3;image=img/lib/active_directory/laptop_client.svg;" vertex="1" parent="1">
          <mxGeometry x="917.5" y="26" width="45" height="50" as="geometry" />
        </mxCell>
        <mxCell id="yVznmgjhYQ62BfokBK0U-40" value="VPN Gateway" style="text;html=1;align=center;verticalAlign=middle;whiteSpace=wrap;rounded=0;" vertex="1" parent="1">
          <mxGeometry x="760" y="173" width="120" height="30" as="geometry" />
        </mxCell>
        <mxCell id="yVznmgjhYQ62BfokBK0U-41" style="edgeStyle=orthogonalEdgeStyle;rounded=0;orthogonalLoop=1;jettySize=auto;html=1;exitX=0.5;exitY=1;exitDx=0;exitDy=0;" edge="1" parent="1" source="yVznmgjhYQ62BfokBK0U-40" target="yVznmgjhYQ62BfokBK0U-40">
          <mxGeometry relative="1" as="geometry" />
        </mxCell>
      </root>
    </mxGraphModel>
  </diagram>
</mxfile>
